<svg width="35" height="39" viewBox="0 0 35 39" fill="none" xmlns="http://www.w3.org/2000/svg">
<path d="M16.7331 23.6401C16.1722 23.6401 15.6963 23.2989 15.4597 22.8532C15.0981 22.1708 15.3028 21.3811 15.9302 21.0152C16.4832 20.6933 16.4885 19.5982 16.3397 18.6077C14.2819 21.4169 12.7585 23.087 8.2363 23.087C6.80598 23.087 5.63354 22.7376 4.39198 22.3634L4.07295 22.2671C3.72202 22.1625 3.51731 21.7829 3.61834 21.4197C3.71936 21.0565 4.08625 20.8446 4.43718 20.9492L4.75887 21.0455C5.90738 21.3894 6.99208 21.7141 8.2363 21.7141C12.4315 21.7141 13.5402 20.1843 15.7495 17.1385L16.1243 16.624C16.2705 16.4204 16.5151 16.3213 16.7571 16.3598C16.999 16.3984 17.201 16.5744 17.2808 16.8138C17.4217 17.2375 18.5995 20.9767 16.6215 22.1846C16.6321 22.2093 16.6534 22.2368 16.68 22.2533C16.7225 22.2781 16.7863 22.2699 16.8687 22.2231C17.8949 21.659 19.5167 19.8789 19.0753 16.7863C19.0328 16.4864 19.1843 16.192 19.4502 16.0654C19.7161 15.9361 20.0298 16.0049 20.2265 16.2305C22.7655 19.191 26.5353 20.8886 30.5684 20.8886C30.704 20.8886 30.8369 20.8831 30.9698 20.8804L31.0416 20.8776C31.4192 20.8639 31.7143 21.1638 31.7249 21.5407C31.7355 21.9204 31.4484 22.2368 31.0842 22.2478L31.015 22.2506C30.8662 22.2561 30.7199 22.2616 30.5711 22.2616C26.764 22.2616 23.1642 20.8721 20.4552 18.3986C20.2478 21.1555 18.5995 22.8284 17.4908 23.4364C17.2276 23.5795 16.9724 23.6401 16.7331 23.6401Z" fill="#FD0000"/>
<path d="M17.6929 34.376C16.2386 34.376 14.8615 33.9 14.0134 33.0994C13.7422 32.8462 13.7236 32.4115 13.9682 32.1309C14.2128 31.8502 14.6328 31.8282 14.904 32.0841C15.5155 32.6591 16.5577 33.0031 17.6929 33.0031C18.8281 33.0031 19.8703 32.6591 20.4817 32.0841C20.7529 31.8282 21.1703 31.8502 21.4176 32.1309C21.6648 32.4115 21.6435 32.8435 21.3724 33.0994C20.5243 33.8973 19.1498 34.376 17.6929 34.376Z" fill="#FD0000"/>
<path d="M17.5679 38.8168C12.0567 38.8168 7.02398 35.24 5.046 29.9132C4.91572 29.5583 5.08587 29.1621 5.42617 29.0273C5.76913 28.8897 6.15197 29.0686 6.28224 29.4207C8.06615 34.2192 12.6017 37.4438 17.5679 37.4438C22.5395 37.4438 27.075 34.2164 28.8563 29.4097C28.9865 29.0575 29.3694 28.8815 29.7123 29.0163C30.0553 29.1511 30.2254 29.5473 30.0925 29.9022C28.1172 35.2372 23.0818 38.8168 17.5679 38.8168Z" fill="#FD0000"/>
<path d="M4.25373 22.2973C3.8895 22.2973 3.5944 21.9947 3.59174 21.615V21.5765C3.59174 21.5462 3.58908 21.5159 3.58908 21.4857C3.58908 13.4351 9.91651 6.88672 17.6955 6.88672C25.4745 6.88672 31.802 13.4351 31.802 21.4857C31.802 21.4939 31.802 21.5187 31.802 21.5269C31.802 21.9066 31.5042 22.212 31.14 22.212C30.7731 22.212 30.478 21.9039 30.478 21.5242C30.478 21.5159 30.478 21.4912 30.478 21.4829C30.478 14.1917 24.7434 8.25692 17.6982 8.25692C10.6529 8.25692 4.91306 14.1944 4.91306 21.4884L4.91571 21.6095C4.91837 21.9892 4.62327 22.2973 4.25639 22.3001C4.25639 22.2973 4.25373 22.2973 4.25373 22.2973Z" fill="#FD0000"/>
<path d="M5.66543 30.3534C5.65745 30.3534 5.64682 30.3534 5.63884 30.3534C1.50208 30.1801 -1.52588e-05 26.9224 -1.52588e-05 24.7736C-1.52588e-05 22.4432 1.41435 20.8171 3.43753 20.8171C3.7672 20.8171 4.09952 20.8639 4.42387 20.9519C4.77746 21.0509 4.98749 21.4251 4.89178 21.7911C4.79607 22.157 4.4345 22.3744 4.08091 22.2753C3.86557 22.2148 3.65022 22.1845 3.43753 22.1845C1.97797 22.1845 1.32396 23.4832 1.32396 24.7708C1.32396 25.8907 2.10824 28.8319 5.68935 28.9832C6.05624 28.9998 6.33805 29.3162 6.32476 29.6959C6.31146 30.0645 6.01636 30.3534 5.66543 30.3534Z" fill="#FD0000"/>
<path d="M29.4731 30.3452C29.1274 30.3452 28.835 30.0673 28.8137 29.7041C28.7898 29.3272 29.069 28.9998 29.4332 28.9777C32.7644 28.7604 33.6444 26.1328 33.6444 24.7736C33.6444 23.4859 32.9904 22.1873 31.5308 22.1873C31.4298 22.1873 31.3261 22.1955 31.2198 22.2093C30.8582 22.2588 30.5259 21.9919 30.4807 21.615C30.4355 21.238 30.6907 20.8969 31.0549 20.8501C31.2171 20.8281 31.3766 20.8171 31.5335 20.8171C33.5566 20.8171 34.971 22.4432 34.971 24.7736C34.971 26.8702 33.5194 30.0838 29.5183 30.3452C29.5023 30.3452 29.4864 30.3452 29.4731 30.3452Z" fill="#FD0000"/>
<path d="M23.8076 27.6708C23.26 27.6708 22.8133 27.2113 22.8133 26.6418V25.2551C22.8133 24.6883 23.2573 24.2261 23.8076 24.2261C24.3553 24.2261 24.8019 24.6856 24.8019 25.2551V26.6418C24.8019 27.2113 24.3579 27.6708 23.8076 27.6708Z" fill="#FD0000"/>
<path d="M11.3282 27.6708C10.7806 27.6708 10.3339 27.2113 10.3339 26.6418V25.2551C10.3339 24.6883 10.7779 24.2261 11.3282 24.2261C11.8759 24.2261 12.3225 24.6856 12.3225 25.2551V26.6418C12.3225 27.2113 11.8786 27.6708 11.3282 27.6708Z" fill="#FD0000"/>
<path d="M24.1453 9.96834C24.0921 9.96834 24.0363 9.96009 23.9804 9.94633C23.6268 9.85278 23.4115 9.47859 23.5019 9.11265C23.6242 8.6119 23.688 8.09463 23.688 7.57737C23.688 4.15462 20.9975 1.37295 17.6929 1.37295C14.3883 1.3702 11.6978 4.15462 11.6978 7.57737C11.6978 8.09738 11.7616 8.61465 11.8839 9.11265C11.9743 9.47859 11.7589 9.85278 11.4053 9.94633C11.0517 10.0371 10.6902 9.81701 10.5998 9.45107C10.4509 8.84026 10.3738 8.21019 10.3738 7.57737C10.3738 3.39799 13.6571 0 17.6929 0C21.7286 0 25.0146 3.39799 25.0146 7.57737C25.0146 8.21019 24.9375 8.84301 24.7886 9.45107C24.7115 9.76198 24.443 9.96834 24.1453 9.96834Z" fill="#FD0000"/>
</svg>
