<svg width="37" height="34" viewBox="0 0 37 34" fill="none" xmlns="http://www.w3.org/2000/svg">
<path d="M17.5619 17.7236C16.9731 17.7236 16.4737 17.3661 16.2253 16.8989C15.8459 16.1837 16.0607 15.3561 16.7192 14.9726C17.3052 14.6294 17.3135 13.4874 17.1517 12.4464C14.9893 15.3936 13.3904 17.1469 8.64421 17.1469C7.14306 17.1469 5.91255 16.7807 4.60951 16.3885L4.27468 16.2875C3.90636 16.178 3.69151 15.78 3.79754 15.3994C3.90357 15.0187 4.28863 14.7967 4.65694 14.9062L4.99456 15.0072C6.19995 15.3676 7.33837 15.7079 8.64421 15.7079C13.0472 15.7079 14.2108 14.1046 16.5295 10.9123L16.9229 10.373C17.0764 10.1625 17.3331 10.0558 17.587 10.0962C17.8409 10.1366 18.0529 10.3211 18.1367 10.572C18.2845 11.0161 19.5206 14.9351 17.4447 16.201C17.4558 16.227 17.4782 16.2558 17.5061 16.2731C17.5507 16.2991 17.6149 16.2904 17.7042 16.2414C18.7812 15.6502 20.4833 13.7845 20.0201 10.5403C19.9754 10.226 20.1345 9.91739 20.4135 9.78474C20.6925 9.6492 21.0218 9.7213 21.2283 9.95776C23.893 13.0607 27.8495 14.8399 32.0823 14.8399C32.2247 14.8399 32.3642 14.8341 32.5037 14.8313L32.5762 14.8284C32.5846 14.8284 32.5902 14.8284 32.5985 14.8284C32.9724 14.8284 33.2822 15.1341 33.2933 15.5234C33.3045 15.9213 33.0031 16.2529 32.6209 16.2645L32.5483 16.2674C32.3921 16.2731 32.2386 16.2789 32.0796 16.2789C28.0839 16.2789 24.3059 14.8226 21.4626 12.2301C21.245 15.1225 19.515 16.8729 18.3515 17.5102C18.0809 17.6602 17.813 17.7236 17.5619 17.7236Z" fill="#FD0000"/>
<path d="M18.5692 28.973C17.0429 28.973 15.5975 28.4742 14.7074 27.635C14.4228 27.3697 14.4033 26.9141 14.66 26.6199C14.9167 26.3258 15.3576 26.3027 15.6422 26.5709C16.2839 27.1736 17.3777 27.5341 18.5692 27.5341C19.7606 27.5341 20.8544 27.1736 21.4961 26.5709C21.7807 26.3027 22.2188 26.3258 22.4783 26.6199C22.7378 26.9141 22.7155 27.3668 22.4309 27.635C21.5408 28.4742 20.0982 28.973 18.5692 28.973Z" fill="#FD0000"/>
<path d="M18.438 33.6303C12.6538 33.6303 7.37186 29.8814 5.29591 24.2985C5.15919 23.9265 5.33776 23.5113 5.69491 23.37C6.05207 23.2287 6.45665 23.4132 6.59338 23.7823C8.46564 28.8116 13.2258 32.1913 18.438 32.1913C23.6558 32.1913 28.416 28.8087 30.2854 23.7708C30.4221 23.4017 30.8239 23.2171 31.1839 23.3584C31.541 23.4997 31.7224 23.915 31.5829 24.287C29.5097 29.8756 24.225 33.6303 18.438 33.6303Z" fill="#FD0000"/>
<path d="M4.46442 16.3164C4.08215 16.3164 3.77244 15.9991 3.76965 15.6012V15.5608C3.76965 15.5291 3.76686 15.4974 3.76686 15.4657C3.76686 7.03075 10.4077 0.16748 18.5692 0.16748C26.7334 0.16748 33.3742 7.03075 33.3742 15.4685C33.3742 15.4801 33.3742 15.5089 33.3742 15.5204C33.3742 15.9184 33.0617 16.2327 32.6795 16.2327C32.2972 16.2327 31.9847 15.9069 31.9847 15.5089C31.9847 15.4974 31.9847 15.4685 31.9847 15.4599C31.9847 7.82666 25.9661 1.60646 18.5719 1.60646C11.175 1.60646 5.15919 7.82666 5.15919 15.4685L5.16198 15.5954C5.16477 15.9934 4.85505 16.3164 4.47 16.3192C4.46721 16.3164 4.46442 16.3164 4.46442 16.3164Z" fill="#FD0000"/>
<path d="M5.94605 24.7599C5.93768 24.7599 5.92652 24.7599 5.91814 24.7599C1.57651 24.5782 1.52588e-05 21.161 1.52588e-05 18.9088C1.52588e-05 16.4663 1.48443 14.762 3.60781 14.762C3.95381 14.762 4.30259 14.811 4.643 14.9033C5.0141 15.0071 5.23453 15.3993 5.13408 15.7829C5.03363 16.1664 4.65416 16.3942 4.28306 16.2904C4.05705 16.227 3.83103 16.1952 3.60781 16.1952C2.07596 16.1952 1.38956 17.5564 1.38956 18.9059C1.38956 20.0796 2.21269 23.1623 5.97116 23.3209C6.35621 23.3382 6.65198 23.6699 6.63803 24.0678C6.62408 24.4571 6.31715 24.7599 5.94605 24.7599Z" fill="#FD0000"/>
<path d="M30.9328 24.7513C30.57 24.7513 30.2631 24.46 30.2408 24.0794C30.2157 23.6843 30.5086 23.3412 30.8909 23.3181C34.3871 23.0903 35.3107 20.3363 35.3107 18.9118C35.3107 17.5622 34.6243 16.201 33.0924 16.201C32.9864 16.201 32.8776 16.2097 32.766 16.2241C32.3837 16.276 32.0377 15.9963 31.9903 15.6012C31.9428 15.2062 32.2107 14.8486 32.593 14.7996C32.7632 14.7765 32.9306 14.765 33.0952 14.765C35.2186 14.765 36.703 16.4692 36.703 18.9118C36.703 21.1092 35.1795 24.4773 30.9802 24.7513C30.9635 24.7484 30.9467 24.7513 30.9328 24.7513Z" fill="#FD0000"/>
<path d="M24.9867 21.9483C24.4119 21.9483 23.9432 21.4667 23.9432 20.8698V19.4164C23.9432 18.8224 24.4091 18.3379 24.9867 18.3379C25.5615 18.3379 26.0303 18.8195 26.0303 19.4164V20.8698C26.0303 21.4667 25.5643 21.9483 24.9867 21.9483Z" fill="#FD0000"/>
<path d="M11.8893 21.9483C11.3145 21.9483 10.8457 21.4667 10.8457 20.8698V19.4164C10.8457 18.8224 11.3117 18.3379 11.8893 18.3379C12.4641 18.3379 12.9328 18.8195 12.9328 19.4164V20.8698C12.9328 21.4667 12.4669 21.9483 11.8893 21.9483Z" fill="#FD0000"/>
<path d="M12.1516 32.0096C4.73227 32.0096 0.192522 29.0134 0.192522 27.3812C0.192522 27.0525 0.343196 26.7612 0.602689 26.5795C0.789636 26.4498 1.02402 26.3834 1.30025 26.3834C3.23669 26.3834 3.56036 23.6987 3.56315 23.6699C3.60779 23.2748 3.95378 22.9922 4.33326 23.0383C4.71552 23.0845 4.98897 23.442 4.94432 23.8342C4.80481 25.0829 4.00122 27.3408 1.96991 27.7532C3.07485 28.7193 6.42316 30.5677 12.1488 30.5677C12.5338 30.5677 12.8435 30.8907 12.8435 31.2858C12.8463 31.6895 12.5366 32.0096 12.1516 32.0096Z" fill="#FD0000"/>
<path d="M24.9867 32.0096C24.6017 32.0096 24.292 31.6866 24.292 31.2916C24.292 30.8936 24.6045 30.5735 24.9867 30.5735C30.7151 30.5735 34.0606 28.7222 35.1656 27.759C34.3704 27.5975 33.6867 27.139 33.1622 26.4094C32.3614 25.2963 32.1968 23.8977 32.1912 23.84C32.1465 23.445 32.42 23.0903 32.8022 23.0441C33.1845 22.9951 33.5277 23.2806 33.5723 23.6728C33.5723 23.6843 33.7063 24.7542 34.2783 25.553C34.6801 26.1153 35.1907 26.3864 35.8352 26.3864C36.1115 26.3864 36.3459 26.4527 36.5328 26.5824C36.7951 26.7641 36.943 27.0554 36.943 27.3841C36.9458 29.0134 32.406 32.0096 24.9867 32.0096Z" fill="#FD0000"/>
</svg>
