<svg width="16" height="17" viewBox="0 0 16 17" fill="none" xmlns="http://www.w3.org/2000/svg">
<path d="M15.7824 14.2989L12.6666 11.0786C12.5259 10.9333 12.3353 10.8525 12.1353 10.8525H11.6259C12.4884 9.71238 13.001 8.27829 13.001 6.71824C13.001 3.00706 10.0914 0 6.50048 0C2.90959 0 0 3.00706 0 6.71824C0 10.4294 2.90959 13.4365 6.50048 13.4365C8.00996 13.4365 9.39756 12.9068 10.5008 12.0153V12.5418C10.5008 12.7485 10.5789 12.9455 10.7195 13.0909L13.8354 16.3111C14.1292 16.6147 14.6042 16.6147 14.8948 16.3111L15.7793 15.397C16.0731 15.0934 16.0731 14.6025 15.7824 14.2989ZM6.50048 10.8525C4.29094 10.8525 2.50018 9.00503 2.50018 6.71824C2.50018 4.43469 4.28781 2.58394 6.50048 2.58394C8.71001 2.58394 10.5008 4.43146 10.5008 6.71824C10.5008 9.0018 8.71314 10.8525 6.50048 10.8525Z" fill="#888888"/>
</svg>
