<svg width="36" height="26" viewBox="0 0 36 26" fill="none" xmlns="http://www.w3.org/2000/svg">
<path fill-rule="evenodd" clip-rule="evenodd" d="M32.0646 1.55225C33.6135 1.96614 34.8335 3.1861 35.2476 4.73483C36 7.54227 36 13.3998 36 13.3998C36 13.3998 36 19.2573 35.2476 22.0648C34.8335 23.6137 33.6135 24.8335 32.0646 25.2477C29.2571 26 17.9998 26 17.9998 26C17.9998 26 6.74247 26 3.93503 25.2477C2.38611 24.8335 1.16595 23.6137 0.752055 22.0648C0 19.2573 0 13.3998 0 13.3998C0 13.3998 0 7.54227 0.752055 4.73483C1.16595 3.1861 2.38611 1.96614 3.93503 1.55225C6.74247 0.799803 17.9998 0.799803 17.9998 0.799803C17.9998 0.799803 29.2571 0.799803 32.0646 1.55225ZM23.7527 13.4L14.3999 18.8V7.9998L23.7527 13.4Z" fill="white"/>
</svg>
