<svg width="35" height="39" viewBox="0 0 35 39" fill="none" xmlns="http://www.w3.org/2000/svg">
<path d="M17.6929 34.439C16.2386 34.439 14.8615 33.9701 14.0134 33.1813C13.7422 32.9292 13.7236 32.5036 13.9682 32.2271C14.2128 31.9506 14.6329 31.929 14.904 32.1811C15.5155 32.7476 16.5603 33.0864 17.6929 33.0864C18.8281 33.0864 19.8703 32.7476 20.4817 32.1811C20.7529 31.929 21.1703 31.9506 21.4176 32.2271C21.6648 32.5036 21.6435 32.9292 21.3724 33.1813C20.5243 33.9701 19.1471 34.439 17.6929 34.439Z" fill="#FD0000"/>
<path d="M17.5679 38.8168C12.0567 38.8168 7.02398 35.2929 5.046 30.045C4.91572 29.6981 5.08587 29.305 5.42617 29.1722C5.76647 29.0394 6.15197 29.2129 6.28224 29.5598C8.06615 34.2872 12.6017 37.4642 17.5679 37.4642C22.5395 37.4642 27.075 34.2845 28.8563 29.549C28.9865 29.202 29.3694 29.0258 29.7123 29.1614C30.0526 29.2942 30.2254 29.6845 30.0925 30.0342C28.1172 35.2875 23.0818 38.8168 17.5679 38.8168Z" fill="#FD0000"/>
<path d="M4.25376 22.5419C3.88953 22.5419 3.59443 22.241 3.59177 21.8697V21.8317C3.59177 21.8019 3.58911 21.7721 3.58911 21.7423C3.58911 13.8108 9.91654 7.35944 17.6956 7.35944C25.4746 7.35944 31.802 13.8108 31.802 21.7423C31.802 21.7504 31.802 21.7775 31.802 21.7856C31.802 22.1597 31.5042 22.4579 31.14 22.4579C30.7731 22.4579 30.478 22.1516 30.478 21.7802C30.478 21.7721 30.478 21.745 30.478 21.7368C30.478 14.559 24.7435 8.71206 17.6982 8.71206C10.6503 8.71206 4.9184 14.559 4.9184 21.7423L4.92106 21.8615C4.92372 22.2356 4.62862 22.5392 4.26173 22.5419C4.25642 22.5419 4.25376 22.5419 4.25376 22.5419Z" fill="#FD0000"/>
<path d="M5.66546 30.4788C5.65748 30.4788 5.64685 30.4788 5.63887 30.4788C1.50211 30.308 1.52588e-05 27.0959 1.52588e-05 24.9788C1.52588e-05 22.6829 1.41438 21.0809 3.43756 21.0809C3.76723 21.0809 4.09955 21.127 4.4239 21.2137C4.77749 21.3113 4.98752 21.6799 4.89181 22.0404C4.7961 22.401 4.43453 22.6151 4.08094 22.5175C3.86826 22.4579 3.65025 22.4308 3.43756 22.4308C1.978 22.4308 1.32399 23.7102 1.32399 24.9788C1.32399 26.0821 2.10827 28.9798 5.68939 29.1289C6.05627 29.1451 6.33808 29.4596 6.32479 29.8309C6.31149 30.1942 6.01905 30.4788 5.66546 30.4788Z" fill="#FD0000"/>
<path d="M29.4731 30.4679C29.1274 30.4679 28.835 30.1942 28.8137 29.8363C28.7898 29.465 29.069 29.1424 29.4332 29.1207C32.7644 28.9066 33.6444 26.3179 33.6444 24.9815C33.6444 23.7129 32.9904 22.4335 31.5308 22.4335C31.4298 22.4335 31.3261 22.4416 31.2198 22.4552C30.8582 22.504 30.5259 22.241 30.478 21.8697C30.4328 21.501 30.688 21.1622 31.0523 21.1134C31.2118 21.0917 31.3739 21.0809 31.5308 21.0809C33.554 21.0809 34.9684 22.6856 34.9684 24.9788C34.9684 27.0444 33.5168 30.2077 29.5156 30.4679C29.5023 30.4679 29.4864 30.4679 29.4731 30.4679Z" fill="#FD0000"/>
<path d="M23.8077 27.8358C23.26 27.8358 22.8133 27.3832 22.8133 26.822V25.4559C22.8133 24.8975 23.2573 24.4421 23.8077 24.4421C24.3553 24.4421 24.802 24.8948 24.802 25.4559V26.822C24.802 27.3832 24.358 27.8358 23.8077 27.8358Z" fill="#FD0000"/>
<path d="M11.3282 27.8358C10.7806 27.8358 10.3339 27.3832 10.3339 26.822V25.4559C10.3339 24.8975 10.7779 24.4421 11.3282 24.4421C11.8759 24.4421 12.3225 24.8948 12.3225 25.4559V26.822C12.3225 27.3832 11.8786 27.8358 11.3282 27.8358Z" fill="#FD0000"/>
<path d="M16.9352 7.03145C15.2044 7.03145 13.7954 5.59479 13.7954 3.83014C13.7954 3.70816 13.8007 3.58618 13.814 3.45607C13.8486 3.08471 14.1729 2.81364 14.5371 2.84888C14.9014 2.88412 15.1672 3.21482 15.1327 3.58618C15.1247 3.6675 15.1194 3.74611 15.1194 3.83014C15.1194 4.84935 15.9329 5.67882 16.9325 5.67882C17.661 5.67882 18.0624 5.26951 18.0624 4.52678C18.0624 4.00905 17.6477 3.58618 17.1399 3.58618C16.773 3.58618 16.4779 3.28259 16.4779 2.91122C16.4779 2.53715 16.7757 2.23627 17.1399 2.23627C18.3788 2.23627 19.3864 3.26361 19.3864 4.52678C19.3917 6.02579 18.4027 7.03145 16.9352 7.03145Z" fill="#FD0000"/>
<path d="M16.3796 11.7264C16.0128 11.7264 15.7177 11.4228 15.7177 11.0514C15.7177 10.68 16.0154 10.3765 16.3796 10.3765C18.1423 10.3765 20.7637 8.84492 20.7637 4.6217C20.7637 2.2092 19.1074 1.35263 17.5574 1.35263C16.2972 1.35263 15.2577 2.31491 15.1354 3.59164C15.1009 3.963 14.7765 4.23407 14.4123 4.19883C14.0481 4.16359 13.7822 3.83289 13.8168 3.46153C14.0029 1.48545 15.6113 0 17.5547 0C20.2665 0 22.0876 1.85681 22.0876 4.6217C22.0876 9.83432 18.674 11.7264 16.3796 11.7264Z" fill="#FD0000"/>
</svg>
