<svg width="35" height="29" viewBox="0 0 35 29" fill="none" xmlns="http://www.w3.org/2000/svg">
<path d="M7.40458 10.6506C7.014 10.6506 6.67997 10.7923 6.40225 11.0744C6.12475 11.3568 5.98578 11.6993 5.98578 12.1017C5.98578 12.5035 6.12475 12.8455 6.40225 13.128C6.67997 13.4105 7.014 13.5522 7.40458 13.5522C7.80076 13.5522 8.13976 13.4105 8.42245 13.128C8.70577 12.8455 8.84625 12.5035 8.84625 12.1017C8.84625 11.6993 8.70577 11.3568 8.42245 11.0744C8.13976 10.7923 7.80076 10.6506 7.40458 10.6506Z" fill="white"/>
<path d="M19.5158 10.6381C19.1257 10.6381 18.7912 10.7786 18.5144 11.0621C18.2367 11.3443 18.097 11.6868 18.097 12.0884C18.097 12.4908 18.2367 12.8322 18.5144 13.1155C18.7912 13.398 19.1257 13.5396 19.5158 13.5396C19.9125 13.5396 20.2517 13.398 20.5344 13.1155C20.8175 12.8322 20.9584 12.4908 20.9584 12.0884C20.9584 11.6868 20.8175 11.3443 20.5344 11.0621C20.2517 10.7786 19.9125 10.6381 19.5158 10.6381Z" fill="white"/>
<path d="M27.5931 10.6506C27.203 10.6506 26.8687 10.7923 26.5906 11.0744C26.3137 11.3568 26.1743 11.6993 26.1743 12.1017C26.1743 12.5035 26.3137 12.8455 26.5906 13.128C26.8687 13.4105 27.203 13.5522 27.5931 13.5522C27.9889 13.5522 28.3289 13.4105 28.6112 13.128C28.8934 12.8455 29.0352 12.5035 29.0352 12.1017C29.0352 11.6993 28.8934 11.3568 28.6112 11.0744C28.3289 10.7923 27.9889 10.6506 27.5931 10.6506Z" fill="white"/>
<path d="M31.0459 14.2676C31.0459 15.8416 30.7475 16.8005 30.0455 17.4677C29.2111 18.2601 28.0217 18.3158 27.0204 18.1729V16.5457C27.8562 16.6294 29.0057 16.0794 29.0037 14.9963V14.5792H28.9787C28.5094 15.2257 27.8253 15.4616 26.916 15.4616C26.0723 15.4616 25.341 15.15 24.8457 14.5693C24.3501 13.9899 24.1026 13.212 24.1026 12.2366C24.1026 11.1439 24.3783 10.276 24.9303 9.63316C25.4814 8.99012 26.2673 8.69082 27.1676 8.69082C27.9738 8.69082 28.4809 8.88589 28.9787 9.3384H29.0037V8.84748H31.0459V14.2676ZM22.8054 13.3775C22.6285 13.7789 22.3734 14.1373 22.0353 14.4523C21.7019 14.7631 21.3202 15.0022 20.8878 15.1679C20.4557 15.3332 19.9991 15.4173 19.5182 15.4173C19.0464 15.4173 18.5963 15.3332 18.1699 15.1679C17.7411 15.0022 17.359 14.7631 17.0211 14.4523C16.6739 14.1248 16.4123 13.7629 16.2341 13.365C16.0563 12.9684 15.9676 12.5461 15.9676 12.1016C15.9676 11.6562 16.0563 11.2341 16.2341 10.8373C16.4123 10.4409 16.6739 10.0777 17.0211 9.7499C17.359 9.43809 17.7411 9.2003 18.1699 9.03349C18.5963 8.86777 19.0464 8.7849 19.5182 8.7849C19.9991 8.7849 20.4557 8.86777 20.8878 9.03349C21.3202 9.2003 21.7019 9.43809 22.0353 9.7499C22.3734 10.065 22.6285 10.4236 22.8054 10.8247C22.9811 11.2265 23.0685 11.6514 23.0685 12.1016C23.0685 12.5513 22.9811 12.9766 22.8054 13.3775ZM14.5831 15.077H12.4876V9.5311C12.4876 8.25083 11.4762 8.08273 11.4762 8.08273V5.86401C11.4762 5.86401 14.4131 6.04311 14.5831 9.60166V15.077ZM10.1731 14.2892C9.63208 14.9005 8.79979 15.1575 7.8937 15.1575C7.07522 15.1575 6.47728 14.9115 6.03491 14.5749H6.0088V15.0101H3.95386V6.04872H6.0088V9.47434H6.03491C6.59078 8.99918 7.32856 8.83842 8.19991 8.80993C8.94394 8.78491 9.71861 9.25079 10.1834 9.78745C10.6461 10.3226 10.9838 11.1618 10.9838 12.0905C10.9838 13.0996 10.7153 13.679 10.1731 14.2892ZM31.1842 0H3.81576C1.7168 0 0 1.71853 0 3.81576V19.2942C0 21.3923 1.7168 23.1099 3.81576 23.1099H14.5624C14.5624 23.1099 16.6376 28.7754 17.3937 28.7754C18.1514 28.7754 20.3958 23.1099 20.3958 23.1099H31.1842C33.283 23.1099 35 21.3923 35 19.2942V3.81576C35 1.71853 33.283 0 31.1842 0Z" fill="white"/>
</svg>
