<svg width="35" height="28" viewBox="0 0 35 28" fill="none" xmlns="http://www.w3.org/2000/svg">
<path d="M31.8182 0.795455C30.0523 0.238636 28.1114 0 26.25 0C23.1477 0 19.8068 0.636364 17.5 2.38636C15.1932 0.636364 11.8523 0 8.75 0C5.64773 0 2.30682 0.636364 0 2.38636V25.6932C0 26.0909 0.397727 26.4886 0.795455 26.4886C0.954545 26.4886 1.03409 26.4091 1.19318 26.4091C3.34091 25.375 6.44318 24.6591 8.75 24.6591C11.8523 24.6591 15.1932 25.2955 17.5 27.0455C19.6477 25.6932 23.5455 24.6591 26.25 24.6591C28.875 24.6591 31.5795 25.1364 33.8068 26.3295C33.9659 26.4091 34.0455 26.4091 34.2045 26.4091C34.6023 26.4091 35 26.0114 35 25.6136V2.38636C34.0455 1.67045 33.0114 1.19318 31.8182 0.795455ZM31.8182 22.2727C30.0682 21.7159 28.1591 21.4773 26.25 21.4773C23.5455 21.4773 19.6477 22.5114 17.5 23.8636V5.56818C19.6477 4.21591 23.5455 3.18182 26.25 3.18182C28.1591 3.18182 30.0682 3.42045 31.8182 3.97727V22.2727Z" fill="#888888"/>
<path d="M26.25 9.54554C27.65 9.54554 29.0023 9.68873 30.2273 9.95918V7.541C28.9705 7.30236 27.6182 7.15918 26.25 7.15918C23.5455 7.15918 21.0955 7.62054 19.0909 8.47963V11.1205C20.8887 10.1024 23.3864 9.54554 26.25 9.54554Z" fill="#888888"/>
<path d="M19.0909 12.7113V15.3522C20.8887 14.3341 23.3864 13.7772 26.25 13.7772C27.65 13.7772 29.0023 13.9204 30.2273 14.1909V11.7727C28.9705 11.5341 27.6182 11.3909 26.25 11.3909C23.5455 11.3909 21.0955 11.8681 19.0909 12.7113Z" fill="#888888"/>
<path d="M26.25 15.6387C23.5455 15.6387 21.0955 16.1 19.0909 16.9591V19.6C20.8887 18.5819 23.3864 18.025 26.25 18.025C27.65 18.025 29.0023 18.1682 30.2273 18.4387V16.0205C28.9705 15.7659 27.6182 15.6387 26.25 15.6387Z" fill="#888888"/>
</svg>
