<svg width="50" height="34" viewBox="0 0 50 34" fill="none" xmlns="http://www.w3.org/2000/svg">
<path d="M15.0152 17.2139C13.514 17.2139 12.2835 16.8448 10.9805 16.4555L10.6456 16.3545C10.2773 16.2449 10.0625 15.847 10.1685 15.4663C10.2745 15.0857 10.6596 14.8636 11.0279 14.9732L11.3655 15.0742C12.5709 15.4346 13.7093 15.7749 15.0152 15.7749C19.6135 15.7749 23.9133 13.6409 26.5222 10.068C26.7538 9.75079 27.189 9.68735 27.496 9.9267C27.8029 10.166 27.8643 10.6159 27.6327 10.9331C24.7615 14.8665 20.046 17.2139 15.0152 17.2139Z" fill="#333333"/>
<path d="M38.4505 16.3458C33.8215 16.3458 29.4854 14.3907 26.5556 10.9821C26.3017 10.6851 26.3268 10.2323 26.6142 9.96702C26.9016 9.7046 27.3397 9.73055 27.5964 10.0276C30.2611 13.1305 34.2177 14.9097 38.4505 14.9097C38.5928 14.9097 38.7323 14.904 38.8718 14.9011L38.9472 14.8982C39.3294 14.8838 39.6531 15.1981 39.6642 15.5932C39.6754 15.9911 39.3741 16.3228 38.9918 16.3343L38.9193 16.3372C38.7602 16.3401 38.6067 16.3458 38.4505 16.3458Z" fill="#333333"/>
<path d="M24.9401 29.0401C23.4138 29.0401 21.9685 28.5412 21.0784 27.702C20.7938 27.4367 20.7742 26.9811 21.0309 26.6869C21.2904 26.3928 21.7285 26.3697 22.0131 26.6379C22.6549 27.2406 23.7486 27.6011 24.9401 27.6011C26.1315 27.6011 27.2253 27.2406 27.867 26.6379C28.1517 26.3697 28.5925 26.3928 28.8492 26.6869C29.1087 26.9811 29.0864 27.4338 28.8018 27.702C27.9117 28.5412 26.4691 29.0401 24.9401 29.0401Z" fill="#333333"/>
<path d="M24.8089 33.6972C19.0247 33.6972 13.7428 29.9484 11.6668 24.3655C11.5301 23.9935 11.7087 23.5782 12.0658 23.4369C12.423 23.2956 12.8276 23.4802 12.9643 23.8493C14.8366 28.8785 19.5967 32.2582 24.8089 32.2582C30.0267 32.2582 34.7869 28.8756 36.6563 23.8378C36.7931 23.4658 37.1949 23.2812 37.5548 23.4254C37.912 23.5667 38.0933 23.9819 37.9538 24.3539C35.8807 29.9426 30.5959 33.6972 24.8089 33.6972Z" fill="#333333"/>
<path d="M10.8354 16.3834C10.4559 16.3834 10.1434 16.0662 10.1406 15.6711V15.6307C10.1406 15.599 10.1378 15.5673 10.1378 15.5327C10.1378 7.09777 16.7786 0.234497 24.9401 0.234497C33.1016 0.234497 39.7452 7.09777 39.7452 15.5356C39.7452 15.5442 39.7452 15.573 39.7452 15.5817C39.7452 15.9796 39.4327 16.2969 39.0504 16.2969C38.6653 16.2969 38.3556 15.971 38.3556 15.5759C38.3556 15.5673 38.3556 15.5384 38.3556 15.5298C38.3556 7.89079 32.337 1.67348 24.9429 1.67348C17.5487 1.67348 11.5273 7.89079 11.5273 15.5356L11.5301 15.6596C11.5329 16.0575 11.226 16.3805 10.8409 16.3863C10.8409 16.3834 10.8381 16.3834 10.8354 16.3834Z" fill="#333333"/>
<path d="M12.317 24.8269C12.3086 24.8269 12.2975 24.8269 12.2891 24.8269C7.94745 24.6452 6.37375 21.228 6.37375 18.9758C6.37375 16.5333 7.85816 14.829 9.98155 14.829C10.3275 14.829 10.6763 14.8781 11.0167 14.9703C11.3878 15.0742 11.6083 15.4663 11.5078 15.8499C11.4102 16.2334 11.0279 16.4612 10.6568 16.3574C10.4308 16.294 10.2048 16.2623 9.97876 16.2623C8.44691 16.2623 7.7605 17.6234 7.7605 18.973C7.7605 20.1466 8.58363 23.2293 12.3421 23.3879C12.7272 23.4052 13.0229 23.7369 13.009 24.1348C12.995 24.5241 12.6881 24.8269 12.317 24.8269Z" fill="#333333"/>
<path d="M37.3037 24.8183C36.941 24.8183 36.6341 24.527 36.6118 24.1463C36.5866 23.7513 36.8796 23.4081 37.2619 23.385C40.7581 23.1572 41.6816 20.4033 41.6816 18.9787C41.6816 17.6291 40.9952 16.268 39.4634 16.268C39.3574 16.268 39.2485 16.2767 39.1369 16.2911C38.7547 16.343 38.4087 16.0633 38.3612 15.6682C38.3138 15.2731 38.5817 14.9155 38.9639 14.8665C39.1341 14.8434 39.3016 14.8319 39.4662 14.8319C41.5896 14.8319 43.074 16.5362 43.074 18.9787C43.074 21.1761 41.5505 24.5443 37.3512 24.8183C37.3344 24.8154 37.3177 24.8183 37.3037 24.8183Z" fill="#333333"/>
<path d="M31.3577 22.0153C30.7829 22.0153 30.3141 21.5337 30.3141 20.9368V19.4834C30.3141 18.8893 30.7801 18.4048 31.3577 18.4048C31.9325 18.4048 32.4012 18.8864 32.4012 19.4834V20.9368C32.4012 21.5337 31.9353 22.0153 31.3577 22.0153Z" fill="#333333"/>
<path d="M18.263 22.0153C17.6882 22.0153 17.2194 21.5337 17.2194 20.9368V19.4834C17.2194 18.8893 17.6854 18.4048 18.263 18.4048C18.8378 18.4048 19.3066 18.8864 19.3066 19.4834V20.9368C19.3038 21.5337 18.8378 22.0153 18.263 22.0153Z" fill="#333333"/>
<path d="M6.62486 13.9754C3.86809 13.9754 1.59961 12.3692 0.575589 10.7803C0.0231182 9.92091 -0.138716 9.09617 0.120777 8.45886C0.503042 7.51877 1.35407 7.4957 1.9763 7.47551C2.79663 7.45244 3.57232 7.42937 4.25593 5.89523L4.27547 5.85197C5.38599 3.36332 6.6416 0.54303 10.7293 0.54303C12.1217 0.54303 13.2406 0.978473 14.0525 1.83782C15.3779 3.23932 15.35 5.24927 15.3472 5.3329C15.3388 5.73086 15.0152 6.03365 14.6357 6.03365C14.2534 6.025 13.9493 5.69625 13.9549 5.30118C13.9549 5.27234 13.9604 3.79011 13.048 2.83271C12.5067 2.26462 11.7254 1.97913 10.7265 1.97913C7.53169 1.97913 6.60812 4.05253 5.53945 6.45179L5.51992 6.49504C4.47357 8.83951 2.93614 8.88565 2.01536 8.91161C1.80609 8.91737 1.49079 8.92603 1.42104 8.97793C1.42104 8.97793 1.41266 8.98947 1.40429 9.01542C1.35965 9.125 1.40987 9.48259 1.73354 9.98435C2.52598 11.2157 4.39266 12.5393 6.62486 12.5393C10.0764 12.5393 10.8465 10.8264 10.8772 10.7543C11.0307 10.3967 11.4353 10.2237 11.784 10.3737C12.1328 10.5265 12.303 10.9302 12.1635 11.2964C12.1217 11.406 11.0837 13.9754 6.62486 13.9754Z" fill="#333333"/>
<path d="M43.2581 13.9754C38.7993 13.9754 37.7585 11.406 37.7167 11.2964C37.5744 10.9273 37.7502 10.5092 38.1073 10.3621C38.4645 10.2151 38.869 10.3967 39.0113 10.7658C39.0365 10.8264 39.8066 12.5393 43.2609 12.5393C45.4931 12.5393 47.3598 11.2157 48.1522 9.98435C48.4759 9.48259 48.5261 9.12212 48.4815 9.01542C48.4703 8.98658 48.4619 8.97793 48.4619 8.97793C48.3922 8.92891 48.0769 8.92026 47.8676 8.91449C46.9468 8.88854 45.4066 8.8424 44.3631 6.49793L44.3435 6.45467C43.2749 4.05541 42.3513 1.98201 39.1564 1.98201C38.1575 1.98201 37.3763 2.27038 36.8349 2.83559C35.917 3.79587 35.9281 5.28965 35.9281 5.30406C35.9337 5.69913 35.6296 6.02788 35.2445 6.03365C34.8594 6.03653 34.5441 5.72797 34.5358 5.3329C34.533 5.24927 34.5051 3.23932 35.8305 1.83782C36.6424 0.978473 37.7613 0.54303 39.1537 0.54303C43.2414 0.54303 44.497 3.36332 45.6047 5.85197L45.6242 5.89523C46.3079 7.42937 47.0835 7.45244 47.9039 7.47551C48.5261 7.49281 49.3771 7.51877 49.7594 8.45886C50.0189 9.09617 49.8571 9.9238 49.3046 10.7803C48.2834 12.3721 46.0149 13.9754 43.2581 13.9754Z" fill="#333333"/>
</svg>
