<svg width="35" height="34" viewBox="0 0 35 34" fill="none" xmlns="http://www.w3.org/2000/svg">
<path d="M23.9261 22.4653C23.3786 22.4653 22.9321 22.0066 22.9321 21.438V20.0535C22.9321 19.4877 23.3759 19.0262 23.9261 19.0262C24.4736 19.0262 24.9202 19.4849 24.9202 20.0535V21.438C24.9202 22.0038 24.4736 22.4653 23.9261 22.4653Z" fill="#FD0000"/>
<path d="M11.4501 22.4653C10.9026 22.4653 10.4561 22.0066 10.4561 21.438V20.0535C10.4561 19.4877 10.8999 19.0262 11.4501 19.0262C12.0003 19.0262 12.4441 19.4849 12.4441 20.0535V21.438C12.4441 22.0038 12.0003 22.4653 11.4501 22.4653Z" fill="#FD0000"/>
<path d="M17.6881 29.1568C16.2342 29.1568 14.8575 28.6815 14.0096 27.8822C13.7385 27.6267 13.7199 27.1955 13.9644 26.9153C14.2089 26.6351 14.6289 26.6131 14.9 26.8686C15.5113 27.4427 16.5558 27.7861 17.6881 27.7861C18.8203 27.7861 19.8649 27.4427 20.4762 26.8686C20.7473 26.6131 21.1646 26.6351 21.4118 26.9153C21.6563 27.1955 21.6377 27.6267 21.3666 27.8822C20.5187 28.6815 19.1419 29.1568 17.6881 29.1568Z" fill="#FD0000"/>
<path d="M17.5632 33.593C12.0534 33.593 7.02208 30.022 5.04463 24.704C4.91439 24.3524 5.08449 23.9541 5.4247 23.8195C5.76491 23.6849 6.1503 23.8607 6.28053 24.2123C8.06396 29.0029 12.5983 32.2223 17.5632 32.2223C22.5334 32.2223 27.0677 29.0002 28.8485 24.2013C28.9787 23.8497 29.3614 23.6712 29.7043 23.8085C30.0445 23.9431 30.2173 24.3387 30.0844 24.693C28.1096 30.0165 23.0756 33.593 17.5632 33.593Z" fill="#FD0000"/>
<path d="M5.66391 25.1436C5.65594 25.1436 5.6453 25.1436 5.63733 25.1436C1.50169 24.9705 0 21.7154 0 19.5701C0 17.2435 1.41398 15.6201 3.43662 15.6201C3.76619 15.6201 4.09843 15.6668 4.42269 15.7547C4.77618 15.8535 4.98615 16.2271 4.89047 16.5925C4.79479 16.9578 4.43332 17.1748 4.07982 17.0759C3.86719 17.0155 3.64925 16.988 3.43662 16.988C1.97745 16.988 1.32362 18.2846 1.32362 19.5701C1.32362 20.6881 2.10769 23.6245 5.68783 23.7756C6.05462 23.7921 6.33635 24.1107 6.32306 24.4871C6.30977 24.8551 6.01475 25.1436 5.66391 25.1436Z" fill="#FD0000"/>
<path d="M29.4651 25.1326C29.1196 25.1326 28.8272 24.8551 28.8059 24.4926C28.782 24.1162 29.0611 23.7893 29.4252 23.7674C32.7555 23.5504 33.6353 20.9271 33.6353 19.5728C33.6353 18.2873 32.9814 16.9908 31.5223 16.9908C31.4213 16.9908 31.3176 16.999 31.2113 17.0127C30.8445 17.0594 30.5176 16.7957 30.4698 16.4194C30.4246 16.0458 30.6797 15.7025 31.0439 15.653C31.206 15.631 31.3655 15.6201 31.5223 15.6201C33.5449 15.6201 34.9589 17.2462 34.9589 19.5701C34.9589 21.6632 33.5077 24.8689 29.5076 25.1326C29.4943 25.1326 29.4784 25.1326 29.4651 25.1326Z" fill="#FD0000"/>
<path d="M31.1263 17.0182C30.7595 17.0182 30.4645 16.7078 30.4645 16.3288C30.4645 16.3178 30.4645 16.2903 30.4645 16.2793C30.4645 12.9253 29.2365 9.71971 27.0092 7.26123C26.7594 6.98654 26.7727 6.55253 27.0385 6.29432C27.3043 6.03611 27.7242 6.04985 27.974 6.32454C30.4352 9.03573 31.7881 12.5737 31.7881 16.2876C31.7881 16.2985 31.7881 16.326 31.7881 16.3343C31.7881 16.7188 31.493 17.0182 31.1263 17.0182Z" fill="#FD0000"/>
<path d="M4.25259 17.1006C3.89112 17.1006 3.59344 16.7985 3.59078 16.4221V16.3837C3.59078 16.3535 3.58812 16.3232 3.58812 16.293C3.58812 8.25559 9.91384 1.71796 17.6908 1.71796C18.0575 1.71796 18.3526 2.02561 18.3526 2.40194C18.3526 2.78101 18.0549 3.08591 17.6908 3.08591C10.6448 3.08591 4.91439 9.01099 4.91439 16.2903L4.91705 16.4084C4.91971 16.7875 4.62734 17.0951 4.26056 17.1006C4.25524 17.1006 4.25524 17.1006 4.25259 17.1006Z" fill="#FD0000"/>
<path d="M5.50976 20.2404H4.24993C3.88314 20.2404 3.58812 19.9327 3.58812 19.5564V16.4167C3.58812 16.0376 3.8858 15.7327 4.24993 15.7327C4.61671 15.7327 4.91174 16.0403 4.91174 16.4167V18.8724H5.50976C6.02804 18.8724 6.44798 18.4933 6.44798 18.0264V16.3013C6.44798 16.1145 6.5224 15.9332 6.6553 15.8041C6.78819 15.675 6.96627 15.6063 7.147 15.6173C7.16295 15.6173 8.8879 15.6942 9.82347 14.774C10.2301 14.3757 10.4268 13.8428 10.4268 13.1479C10.4268 12.8869 10.5703 12.6479 10.7962 12.5325C11.0222 12.4172 11.2933 12.4446 11.4926 12.604C12.88 13.7082 15.1817 14.2933 18.1506 14.2933C23.3919 14.2933 25.3135 11.4667 26.863 6.58275C26.9773 6.22291 27.3494 6.02788 27.6976 6.14599C28.0458 6.26411 28.2345 6.65142 28.1202 7.00852C26.7302 11.3871 24.8165 15.664 18.1506 15.664C15.405 15.664 13.2069 15.208 11.5989 14.3043C11.4368 14.8729 11.1471 15.3646 10.7298 15.7739C9.82879 16.6556 8.55567 16.9029 7.7716 16.9688V18.0264C7.7716 19.2487 6.75629 20.2404 5.50976 20.2404Z" fill="#FD0000"/>
<path d="M27.493 7.48097C27.4239 7.48097 27.3547 7.46998 27.2856 7.44801C26.9375 7.32989 26.7488 6.94258 26.863 6.58548C27.0863 5.88227 27.2697 5.3219 27.5116 4.59672C27.7641 3.83308 27.6604 3.23426 27.2378 3.03373C26.8976 2.87166 26.3634 2.99253 25.9886 3.64354C25.8026 3.96768 25.3959 4.07481 25.0796 3.88253C24.766 3.69024 24.6623 3.26997 24.8484 2.94583C25.6059 1.62732 26.9029 1.36636 27.7933 1.79213C28.673 2.21241 29.3163 3.38259 28.7634 5.04447C28.5242 5.76415 28.3408 6.31903 28.1202 7.01674C28.0298 7.29693 27.772 7.48097 27.493 7.48097Z" fill="#FD0000"/>
<path d="M25.2657 3.33593C25.2045 3.33593 25.1434 3.32769 25.0823 3.30846C24.7314 3.20408 24.5294 2.82501 24.6304 2.45967C24.7686 1.97072 24.5799 1.67405 24.3567 1.56143C24.0962 1.42958 23.655 1.47353 23.259 2.02566C22.2782 3.39636 20.9227 3.28923 19.3546 3.16837C18.831 3.12717 18.2888 3.08596 17.6908 3.08596C17.324 3.08596 17.0289 2.77831 17.0289 2.40198C17.0289 2.02291 17.3266 1.71801 17.6908 1.71801C18.3393 1.71801 18.932 1.7647 19.4556 1.80591C20.9785 1.92402 21.6722 1.946 22.1958 1.21532C23.0224 0.0616224 24.1706 -0.0564945 24.9441 0.33906C25.8132 0.784058 26.1986 1.78942 25.9036 2.84424C25.8185 3.1409 25.5527 3.33593 25.2657 3.33593Z" fill="#FD0000"/>
<path d="M31.1289 20.2403H29.9914C28.689 20.2403 27.6312 19.2047 27.6312 17.9329V16.9687C26.8471 16.9028 25.5713 16.6556 24.673 15.7738C23.9952 15.1118 23.6523 14.2273 23.6523 13.1478C23.6523 12.7687 23.95 12.4638 24.3142 12.4638C24.6783 12.4638 24.976 12.7715 24.976 13.1478C24.976 13.8428 25.1726 14.3757 25.5793 14.774C26.5175 15.6942 28.2425 15.62 28.2584 15.6173C28.4418 15.609 28.6172 15.6749 28.7475 15.804C28.8777 15.9331 28.9548 16.1117 28.9548 16.2985V17.9301C28.9548 18.4466 29.4199 18.8668 29.9914 18.8668H30.4671V16.8122C30.4671 16.4331 30.7648 16.1282 31.1289 16.1282C31.493 16.1282 31.7907 16.4358 31.7907 16.8122V19.5508C31.7907 19.9354 31.493 20.2403 31.1289 20.2403Z" fill="#FD0000"/>
</svg>
