<svg width="32" height="32" viewBox="0 0 32 32" fill="none" xmlns="http://www.w3.org/2000/svg">
<path d="M29.053 23.0015C29.053 26.3876 26.3081 29.1326 22.9219 29.1326H9.078C5.69191 29.1326 2.94687 26.3876 2.94687 23.0015V9.15755C2.94687 5.77146 5.69191 3.02642 9.078 3.02642H22.9219C26.3081 3.02642 29.053 5.77146 29.053 9.15755V23.0015ZM22.7636 0H9.2363C4.13522 0 0 4.1353 0 9.23639V22.7637C0 27.8648 4.13522 32 9.2363 32H22.7636C27.8647 32 32 27.8648 32 22.7637V9.23639C32 4.1353 27.8647 0 22.7636 0Z" fill="white"/>
<path d="M15.9999 21.4617C13.0273 21.4617 10.6176 19.052 10.6176 16.0795C10.6176 13.1068 13.0273 10.6972 15.9999 10.6972C18.9724 10.6972 21.3822 13.1068 21.3822 16.0795C21.3822 19.052 18.9724 21.4617 15.9999 21.4617ZM15.9999 7.77649C11.4143 7.77649 7.69696 11.4938 7.69696 16.0795C7.69696 20.665 11.4143 24.3823 15.9999 24.3823C20.5854 24.3823 24.3028 20.665 24.3028 16.0795C24.3028 11.4938 20.5854 7.77649 15.9999 7.77649Z" fill="white"/>
<path d="M24.5798 5.52644C23.5115 5.52644 22.6455 6.39247 22.6455 7.46068C22.6455 8.52899 23.5115 9.39502 24.5798 9.39502C25.6481 9.39502 26.514 8.52899 26.514 7.46068C26.514 6.39247 25.6481 5.52644 24.5798 5.52644Z" fill="white"/>
</svg>
