<svg width="35" height="28" viewBox="0 0 35 28" fill="none" xmlns="http://www.w3.org/2000/svg">
<g clip-path="url(#clip0_19_101)">
<path d="M11.375 19.25C11.2443 19.25 11.1136 19.2691 10.9889 19.3096C10.2801 19.5398 9.53473 19.6875 8.74997 19.6875C7.9652 19.6875 7.21981 19.5398 6.51051 19.3096C6.38583 19.2691 6.25567 19.25 6.12497 19.25C2.73106 19.25 -0.0180806 22.0106 -3.37238e-05 25.4089C0.00762253 26.845 1.18833 28 2.62497 28H14.875C16.3116 28 17.4923 26.845 17.5 25.4089C17.518 22.0106 14.7689 19.25 11.375 19.25ZM8.74997 17.5C11.6495 17.5 14 15.1495 14 12.25C14 9.35047 11.6495 7 8.74997 7C5.85044 7 3.49997 9.35047 3.49997 12.25C3.49997 15.1495 5.85044 17.5 8.74997 17.5ZM32.375 0H11.375C9.92739 0 8.74997 1.2168 8.74997 2.71195V5.25C10.0307 5.25 11.2164 5.62078 12.25 6.22344V3.5H31.5V19.25H28V15.75H21V19.25H16.8306C17.8751 20.1627 18.6418 21.368 19.0011 22.75H32.375C33.8225 22.75 35 21.5332 35 20.038V2.71195C35 1.2168 33.8225 0 32.375 0Z" fill="#888888"/>
</g>
<defs>
<clipPath id="clip0_19_101">
<rect width="35" height="28" fill="white"/>
</clipPath>
</defs>
</svg>
